{
  "accessors": [
    {
      "bufferView": 1,
      "componentType": 5126,
      "count": 65532,
      "max": [
        13650.0,
        16383.0,
        14670.0
      ],
      "min": [
        3.0,
        0.0,
        0.0
      ],
      "type": "VEC3"
    },
    {
      "bufferView": 1,
      "byteOffset": 786384,
      "componentType": 5126,
      "count": 65532,
      "max": [
        0.9999716281890869,
        1.0,
        0.9999942183494568
      ],
      "min": [
        -1.0,
        -1.0,
        -0.9998367428779602
      ],
      "type": "VEC3"
    },
    {
      "bufferView": 0,
      "componentType": 5125,
      "count": 318363,
      "type": "SCALAR"
    },
    {
      "bufferView": 1,
      "byteOffset": 1572768,
      "componentType": 5126,
      "count": 65532,
      "max": [
        13745.0,
        16376.0,
        14018.0
      ],
      "min": [
        0.0,
        0.0,
        262.0
      ],
      "type": "VEC3"
    },
    {
      "bufferView": 1,
      "byteOffset": 2359152,
      "componentType": 5126,
      "count": 65532,
      "max": [
        0.9999964833259583,
        1.0,
        0.9998980164527893
      ],
      "min": [
        -0.9999799728393555,
        -1.0,
        -0.9999896287918091
      ],
      "type": "VEC3"
    },
    {
      "bufferView": 0,
      "byteOffset": 1273452,
      "componentType": 5125,
      "count": 306150,
      "type": "SCALAR"
    },
    {
      "bufferView": 1,
      "byteOffset": 3145536,
      "componentType": 5126,
      "count": 65532,
      "max": [
        13746.0,
        16155.0,
        11293.0
      ],
      "min": [
        1.0,
        0.0,
        0.0
      ],
      "type": "VEC3"
    },
    {
      "bufferView": 1,
      "byteOffset": 3931920,
      "componentType": 5126,
      "count": 65532,
      "max": [
        1.0,
        1.0,
        0.9999942183494568
      ],
      "min": [
        -0.9999945759773254,
        -1.0,
        -0.9999881386756897
      ],
      "type": "VEC3"
    },
    {
      "bufferView": 0,
      "byteOffset": 2498052,
      "componentType": 5125,
      "count": 313614,
      "type": "SCALAR"
    },
    {
      "bufferView": 1,
      "byteOffset": 4718304,
      "componentType": 5126,
      "count": 29135,
      "max": [
        13516.0,
        16383.0,
        14329.0
      ],
      "min": [
        356.0,
        0.0,
        5812.0
      ],
      "type": "VEC3"
    },
    {
      "bufferView": 1,
      "byteOffset": 5067924,
      "componentType": 5126,
      "count": 29135,
      "max": [
        0.9985566735267639,
        1.0,
        0.9998937249183655
      ],
      "min": [
        -0.9996808171272278,
        -1.0,
        -0.9988468289375305
      ],
      "type": "VEC3"
    },
    {
      "bufferView": 0,
      "byteOffset": 3752508,
      "componentType": 5125,
      "count": 127125,
      "type": "SCALAR"
    }
  ],
  "asset": {
    "extras": {
      "author": "Lugannsi (https://sketchfab.com/Lugannsi)",
      "license": "CC-BY-4.0 (http://creativecommons.org/licenses/by/4.0/)",
      "source": "https://sketchfab.com/3d-models/vr-844746900530471faee4908aa1a7aa01",
      "title": "ГоршокVR"
    },
    "generator": "Sketchfab-17.7.0",
    "version": "2.0"
  },
  "bufferViews": [
    {
      "buffer": 0,
      "byteLength": 4261008,
      "name": "floatBufferViews",
      "target": 34963
    },
    {
      "buffer": 0,
      "byteLength": 5417544,
      "byteOffset": 4261008,
      "byteStride": 12,
      "name": "floatBufferViews",
      "target": 34962
    }
  ],
  "buffers": [
    {
      "byteLength": 9678552,
      "uri": "scene.bin"
    }
  ],
  "materials": [
    {
      "name": "material_0"
    }
  ],
  "meshes": [
    {
      "name": "Object_0",
      "primitives": [
        {
          "attributes": {
            "NORMAL": 1,
            "POSITION": 0
          },
          "indices": 2,
          "material": 0,
          "mode": 4
        }
      ]
    },
    {
      "name": "Object_1",
      "primitives": [
        {
          "attributes": {
            "NORMAL": 4,
            "POSITION": 3
          },
          "indices": 5,
          "material": 0,
          "mode": 4
        }
      ]
    },
    {
      "name": "Object_2",
      "primitives": [
        {
          "attributes": {
            "NORMAL": 7,
            "POSITION": 6
          },
          "indices": 8,
          "material": 0,
          "mode": 4
        }
      ]
    },
    {
      "name": "Object_3",
      "primitives": [
        {
          "attributes": {
            "NORMAL": 10,
            "POSITION": 9
          },
          "indices": 11,
          "material": 0,
          "mode": 4
        }
      ]
    }
  ],
  "nodes": [
    {
      "children": [
        1
      ],
      "matrix": [
        1.0,
        0.0,
        0.0,
        0.0,
        0.0,
        2.220446049250313e-16,
        -1.0,
        0.0,
        0.0,
        1.0,
        2.220446049250313e-16,
        0.0,
        0.0,
        0.0,
        0.0,
        1.0
      ],
      "name": "Sketchfab_model"
    },
    {
      "children": [
        2
      ],
      "name": "root"
    },
    {
      "children": [
        3
      ],
      "matrix": [
        1.0,
        0.0,
        0.0,
        0.0,
        0.0,
        2.220446049250313e-16,
        1.0,
        0.0,
        0.0,
        -1.0,
        2.220446049250313e-16,
        0.0,
        0.0,
        0.0,
        0.0,
        1.0
      ],
      "name": "GLTF_SceneRootNode"
    },
    {
      "children": [
        4
      ],
      "name": "_1"
    },
    {
      "children": [
        5,
        6,
        7,
        8
      ],
      "matrix": [
        0.00011593163799261674,
        0.0,
        0.0,
        0.0,
        0.0,
        0.00011593163799261674,
        0.0,
        0.0,
        0.0,
        0.0,
        0.00011593163799261674,
        0.0,
        -0.7977978587150574,
        -0.9507525563240051,
        -0.8511195182800293,
        1.0
      ],
      "name": "mesh_0_0"
    },
    {
      "mesh": 0,
      "name": "Object_5"
    },
    {
      "mesh": 1,
      "name": "Object_6"
    },
    {
      "mesh": 2,
      "name": "Object_7"
    },
    {
      "mesh": 3,
      "name": "Object_8"
    }
  ],
  "scene": 0,
  "scenes": [
    {
      "name": "Sketchfab_Scene",
      "nodes": [
        0
      ]
    }
  ]
}
